<svg id="Layer_1" data-name="Layer 1" xmlns="http://www.w3.org/2000/svg" viewBox="0 0 721.15 157.15"><path d="M267.69,69.74a4.82,4.82,0,0,0-4.92,4.92v55h9.84v-55A4.76,4.76,0,0,0,267.69,69.74Z" transform="translate(-60.63 -58.85)" fill="#001a72"/><path d="M645,69.74a4.82,4.82,0,0,0-4.92,4.92v55h9.84v-55A4.76,4.76,0,0,0,645,69.74Z" transform="translate(-60.63 -58.85)" fill="#001a72"/><path d="M351.93,181.23a20.09,20.09,0,0,0,7.12-5.19,18.25,18.25,0,0,0,3.84-11.36c0-11.09-8.4-18.54-20.9-18.54H328.44a5,5,0,0,0-5,4.9v55.52h10v-23h8.64l16.86,23h12.19Zm.8-16c0,5.75-3.72,9.29-10.17,9.7h-9.13V155.25h8.12C348.55,155.25,352.73,159,352.73,165.2Z" transform="translate(-60.63 -58.85)" fill="#001a72"/><path d="M721.75,99.78c-.1-17.52-13.13-30.73-30.31-30.73s-30.12,13.21-30.22,30.74c.12,17.39,13.11,30.51,30.22,30.51,16.93,0,29.84-12.77,30.3-29.82h0Zm-10.18,0c-.12,14-10.22,21.37-20.13,21.37-13,0-20-11-20.13-21.37v-.17c.18-14.06,10.24-21.41,20.13-21.41S711.47,85.61,711.57,99.78Z" transform="translate(-60.63 -58.85)" fill="#001a72"/><path d="M472.25,99.78c-.1-17.52-13.13-30.73-30.31-30.73s-30.12,13.21-30.22,30.74c.12,17.39,13.11,30.51,30.22,30.51,16.93,0,29.84-12.77,30.3-29.82h0Zm-10.18,0c-.12,14-10.21,21.37-20.13,21.37-12.95,0-20-11-20.12-21.37v-.17C422,85.55,432.05,78.2,441.94,78.2S462,85.61,462.07,99.78Z" transform="translate(-60.63 -58.85)" fill="#001a72"/><path d="M433.6,176.45c-.1-17.52-13.13-30.73-30.31-30.73s-30.12,13.21-30.22,30.74c.12,17.39,13.11,30.51,30.22,30.51,16.93,0,29.84-12.77,30.3-29.82h0Zm-10.18,0c-.12,14-10.22,21.37-20.13,21.37-13,0-20-11-20.13-21.37v-.17c.18-14.05,10.24-21.41,20.13-21.41S423.32,162.29,423.42,176.45Z" transform="translate(-60.63 -58.85)" fill="#001a72"/><path d="M624.93,70.17h-40a4.49,4.49,0,0,0,.09,9h15v50.54h9.84V79.15h15a4.49,4.49,0,0,0,.08-9Z" transform="translate(-60.63 -58.85)" fill="#001a72"/><path d="M488.83,145.94a4.87,4.87,0,0,0-5,4.83v30.75c0,10.14-5.7,16.43-14.88,16.43-9.38,0-15-6.17-15-16.52V150.86a4.77,4.77,0,0,0-4.84-4.92,4.9,4.9,0,0,0-5,4.92v30.66c0,15.2,10,25.41,24.81,25.41s24.63-10.18,24.63-25.32V150.77A4.68,4.68,0,0,0,488.83,145.94Z" transform="translate(-60.63 -58.85)" fill="#001a72"/><path d="M360.68,129.66v-35c0-10.14,5.71-16.44,14.89-16.44,9.37,0,15,6.18,15,16.53v34.89h9.84v-35c0-15.2-10-25.41-24.81-25.41s-24.64,10.18-24.64,25.32v35.07Z" transform="translate(-60.63 -58.85)" fill="#001a72"/><path d="M297,129.66v-35c0-10.14,5.7-16.44,14.88-16.44,9.38,0,15,6.18,15,16.53v34.89h9.84v-35c0-15.2-10-25.41-24.81-25.41s-24.64,10.18-24.64,25.32v35.07Z" transform="translate(-60.63 -58.85)" fill="#001a72"/><path d="M742.09,129.66v-35c0-10.14,5.7-16.44,14.88-16.44,9.37,0,15,6.18,15,16.53v34.89h9.84v-35c0-15.2-10-25.41-24.81-25.41s-24.64,10.18-24.64,25.32v35.07Z" transform="translate(-60.63 -58.85)" fill="#001a72"/><path d="M525.17,69.65c-2.3,0-3.77,1.15-4.78,3.73-1.88,4.93-3.82,10-5.79,15.1-3.54,9.24-7.2,18.78-10.7,28.1-4.93-13.2-10.73-28.5-16.82-43.47a4.93,4.93,0,0,0-4.62-3.37,4.82,4.82,0,0,0-4.92,4.92,6.42,6.42,0,0,0,.57,2.67l21.14,52.36h9L529.36,76.8a7.48,7.48,0,0,0,.56-2.48A4.61,4.61,0,0,0,525.17,69.65Z" transform="translate(-60.63 -58.85)" fill="#001a72"/><path d="M525.82,146.63l-13.35-.09a4.83,4.83,0,0,0-4.83,4.92V206.6h9.84V186h8.34c12.38,0,21-8.11,21-19.73C546.84,154.89,538,146.63,525.82,146.63Zm10.93,19.64c0,6.69-4.52,10.84-11.79,10.84h-7.48v-21.5h7.57C532.15,155.61,536.75,159.79,536.75,166.27Z" transform="translate(-60.63 -58.85)" fill="#001a72"/><path d="M574.32,129.69h10.22L562.59,74.74c-1.19-3.23-3.59-5.08-6.58-5.08s-5.27,1.78-6.57,5l-22,55h10.12l6-15.9h13.26a4,4,0,0,0,0-8.1H546.64L556,81Z" transform="translate(-60.63 -58.85)" fill="#001a72"/><path d="M291.68,174.92a4.35,4.35,0,1,0,0,8.69H302.4l0,11.84a28.63,28.63,0,0,1-12.47,2.68c-13,0-22-9.08-22-22.08.2-12.66,9.31-21.49,22.15-21.49A27.67,27.67,0,0,1,301.41,157a7.83,7.83,0,0,0,3.89,1.12,4.19,4.19,0,0,0,4-4.26c0-2.29-1.17-3.88-3.76-5.13-4-2.09-9.39-3.2-15.58-3.2-18.45,0-32,12.83-32.24,30.5v.72h0c.31,17.39,13.84,30.43,31.73,30.43a41.77,41.77,0,0,0,21.42-5.47l.34-.21V174.92Z" transform="translate(-60.63 -58.85)" fill="#001a72"/><path d="M135,216a9.75,9.75,0,0,1-9.76-9.75V68.61a9.76,9.76,0,1,1,19.51,0V206.25A9.74,9.74,0,0,1,135,216Zm-22.57-17.79V103.87a9.71,9.71,0,1,0-19.42,0l-.09,94.34a9.76,9.76,0,1,0,19.51,0Zm.1-121.67h0a9.76,9.76,0,0,0-19.52,0h0a9.76,9.76,0,1,0,19.52,0ZM80.14,113.8v0a9.76,9.76,0,0,0-19.51,0v0a9.76,9.76,0,0,0,19.51,0Zm0,47.38V141.13a9.76,9.76,0,1,0-19.51,0v20.05a9.76,9.76,0,1,0,19.51,0Zm109.69,0h0a9.76,9.76,0,1,0,19.51,0h0a9.76,9.76,0,1,0-19.51,0Zm0-47.31v20a9.76,9.76,0,1,0,19.51,0v-20a9.76,9.76,0,1,0-19.51,0Zm-32.3-37.21v94.23a9.76,9.76,0,0,0,19.51,0V76.64a9.76,9.76,0,1,0-19.51,0Zm0,121.54v0a9.76,9.76,0,1,0,19.51,0v0a9.76,9.76,0,1,0-19.51,0Z" transform="translate(-60.63 -58.85)" fill="#001a72"/></svg>