<?xml version="1.0" standalone="no"?>
<!DOCTYPE svg PUBLIC "-//W3C//DTD SVG 20010904//EN"
 "http://www.w3.org/TR/2001/REC-SVG-20010904/DTD/svg10.dtd">
<svg version="1.0" xmlns="http://www.w3.org/2000/svg"
 width="512.000000pt" height="512.000000pt" viewBox="0 0 512.000000 512.000000"
 preserveAspectRatio="xMidYMid meet">
<metadata>
Created by potrace 1.16, written by Peter Selinger 2001-2019
</metadata>
<g transform="translate(0.000000,512.000000) scale(0.100000,-0.100000)"
fill="#000000" stroke="none">
<path d="M2255 5108 c-449 -50 -923 -247 -1288 -535 -103 -81 -316 -293 -402
-399 -234 -289 -407 -638 -495 -996 -57 -232 -65 -309 -65 -613 0 -181 5 -310
13 -365 91 -589 341 -1075 763 -1485 344 -334 754 -555 1219 -659 179 -39 343
-56 560 -56 312 0 537 36 823 130 375 125 692 323 988 619 296 297 491 608
618 986 95 285 131 512 131 825 0 313 -36 538 -131 825 -86 259 -241 546 -416
768 -84 107 -355 372 -464 454 -362 271 -787 443 -1229 498 -137 17 -489 19
-625 3z m595 -314 c559 -74 1072 -355 1432 -784 277 -330 456 -735 513 -1164
22 -161 17 -510 -10 -651 -79 -427 -249 -789 -517 -1100 -123 -142 -166 -183
-172 -164 -3 8 -17 48 -32 89 -15 41 -48 118 -74 170 -153 305 -423 574 -720
716 -44 21 -79 42 -78 45 2 4 38 34 80 68 212 170 363 443 398 723 53 424
-140 840 -498 1075 -102 67 -213 116 -340 150 -87 24 -115 26 -272 26 -157 0
-185 -2 -272 -26 -556 -148 -908 -663 -838 -1225 35 -280 186 -553 398 -723
42 -34 78 -64 80 -68 1 -3 -34 -24 -78 -45 -150 -72 -285 -170 -421 -305 -175
-176 -300 -370 -374 -586 -16 -44 -31 -84 -35 -88 -4 -4 -42 29 -85 75 -322
341 -513 721 -600 1193 -26 138 -32 497 -10 650 35 254 103 480 210 700 425
870 1360 1375 2315 1249z m-148 -1118 c374 -72 641 -376 664 -756 9 -137 -19
-262 -87 -400 -46 -93 -63 -116 -153 -206 -90 -89 -112 -106 -206 -151 -139
-68 -216 -87 -360 -87 -144 0 -221 19 -360 87 -94 45 -116 62 -206 151 -90 90
-107 113 -153 206 -117 236 -119 485 -5 715 160 324 520 508 866 441z m69
-1932 c506 -86 913 -460 1039 -954 l22 -85 -24 -18 c-13 -11 -65 -44 -115 -74
-302 -177 -656 -284 -1001 -301 -390 -20 -738 47 -1089 208 -86 40 -252 135
-291 167 l-24 18 22 85 c126 493 528 863 1035 954 110 20 311 20 426 0z"/>
</g>
</svg>
